<svg xmlns="http://www.w3.org/2000/svg" width="355.633" height="354.78" viewBox="0 0 355.633 354.78">
  <g id="Illustration" transform="translate(-374.157 -298.478)">
    <path id="Path_11487" data-name="Path 11487" d="M1383.037,341.4H1276.423a24.819,24.819,0,0,1,24.631-24.8,24.3,24.3,0,0,1,4.072.349,33.569,33.569,0,0,1,62.358,6.249A18.367,18.367,0,0,1,1383.037,341.4Z" transform="translate(-732.835 0)" fill="#00b106" opacity="0.5"/>
    <g id="Group_9423" data-name="Group 9423" transform="translate(494.36 417.622)">
      <path id="Path_11488" data-name="Path 11488" d="M1072.26,989.327a41.585,41.585,0,0,1-18.039-4.134,53.585,53.585,0,0,1-18.973-15.9,91.445,91.445,0,0,1-11.1-19.156,12.8,12.8,0,0,1,23.407-10.353c5.142,11.625,11.123,19.146,17.776,22.354a15,15,0,0,0,13.692-.117,50.467,50.467,0,0,0-.757-6.9c-.81-5.311-1.817-11.921-.567-18.933,1.591-8.924,6.438-16.357,14.406-22.094a12.8,12.8,0,1,1,14.955,20.771c-4.868,3.505-5.013,6.419-3.491,16.4.705,4.627,1.435,9.412.8,14.46a23.682,23.682,0,0,1-10.849,17.422A39,39,0,0,1,1072.26,989.327Zm7.369-27.678h0Z" transform="translate(-1023.055 -911.68)" fill="#f55d2c"/>
    </g>
    <path id="Path_11489" data-name="Path 11489" d="M404.4,1558.389c0-.006,7.773-53.316,7.773-53.316l27.317,3.982s1.332,21.412,1.335,21.455a18.091,18.091,0,0,1-1.117,7.512c-1.08,2.347-3.562,2.291-5.749,2.666a9.763,9.763,0,0,0-5.682,2.93c-3.36,3.338-5.2,7.7-6.911,12.028-1.481,3.755-3.468,5.748-7.705,5.9C410.706,1561.647,406.2,1561.145,404.4,1558.389Z" transform="translate(-30.247 -972.157)" fill="#00b106"/>
    <path id="Path_11490" data-name="Path 11490" d="M1314.5,1980.792c-.005,0-53.88,0-53.88,0v-27.605l21.038-4.416a18.087,18.087,0,0,1,7.595.021c2.478.73,2.781,3.194,3.468,5.3a9.764,9.764,0,0,0,3.719,5.2c3.788,2.843,8.368,4.038,12.9,5.1,3.929.924,6.189,2.6,6.947,6.774C1316.813,1974.086,1316.966,1978.619,1314.5,1980.792Z" transform="translate(-720.101 -1329.328)" fill="#00b106"/>
    <g id="Group_9424" data-name="Group 9424" transform="translate(509.828 495.496)">
      <path id="Path_11491" data-name="Path 11491" d="M1132.143,1440.75l-28.909-107.539a16.454,16.454,0,0,1,31.779-8.543l28.909,107.539C1166.281,1440.982,1134.117,1448.1,1132.143,1440.75Z" transform="translate(-1102.665 -1312.482)" fill="#090928"/>
    </g>
    <g id="Group_9425" data-name="Group 9425" transform="translate(400.701 491.049)">
      <path id="Path_11492" data-name="Path 11492" d="M568.72,1367.839H547.835c-9.087,0-9.087-32.907,0-32.907H568.72a69.22,69.22,0,0,0,56.359-29.113l6.6-9.295a16.453,16.453,0,0,1,22.94-3.9c7.411,5.259,16.844,14.142,11.585,21.552l-3.062,3.881a9.547,9.547,0,0,1-8.9,3.53h0l-2.321,3.271A102.179,102.179,0,0,1,568.72,1367.839Z" transform="translate(-541.02 -1289.592)" fill="#090928"/>
    </g>
    <path id="Path_11493" data-name="Path 11493" d="M1018.491,1043.088c-4.111,4.805-11.4,9.506-20.183,9.243-15.656-.469-36.567-9.968-56.248-14.8.333-22.379,3.727-33.508,13.531-53.6,5.355-10.972,16.85-24.163,29.027-23.278v6.581a29.888,29.888,0,0,1,27.559,26.7Z" transform="translate(-463.438 -533.484)" fill="#f55d2c"/>
    <path id="Path_11494" data-name="Path 11494" d="M1081.585,923.8h23.909l10.281,23.675-38.256-6.178Z" transform="translate(-572.577 -503.825)" fill="#f55d2c"/>
    <g id="Group_9427" data-name="Group 9427" transform="translate(506.142 380.825)">
      <circle id="Ellipse_258" data-name="Ellipse 258" cx="14.382" cy="14.382" r="14.382" transform="matrix(0.042, -0.999, 0.999, 0.042, 0.396, 29.135)" fill="#fff"/>
      <g id="Group_9426" data-name="Group 9426" transform="translate(0 0)">
        <path id="Path_11495" data-name="Path 11495" d="M1099.062,753.024a15.363,15.363,0,1,1,15.363-15.363A15.38,15.38,0,0,1,1099.062,753.024Zm0-28.763a13.4,13.4,0,1,0,13.4,13.4A13.415,13.415,0,0,0,1099.062,724.26Z" transform="translate(-1083.699 -722.297)" fill="#090928"/>
      </g>
    </g>
    <path id="Path_11496" data-name="Path 11496" d="M1084.1,678.37a29.146,29.146,0,0,1-13.4-2.584c-2.6-1.2-4.468-3.269-7.094-2.133a7.178,7.178,0,0,0-4.13,6.447c0,.68-.938,2.133-.92,3.015.016.782,1.137.893.92,1.521-1.958,5.659-8.42,3.437-11.513.166-3.8-4.019-5.062-12.026.9-14.832a6.207,6.207,0,0,1,2.373-.533c1.71-.072,3.546.777,5.062-.023,2.464-1.3,1.364-4.7,1.661-6.9,1.392-10.333,13.948-10.081,20.93-6.581a20.938,20.938,0,0,1,9.521,9.629c1.613,3.323,2.033,9.983-1.836,12.144A6.061,6.061,0,0,1,1084.1,678.37Z" transform="translate(-546.178 -286.245)" fill="#090928"/>
    <g id="Group_9429" data-name="Group 9429" transform="translate(508.745 385.092)">
      <path id="Path_11497" data-name="Path 11497" d="M1117.336,751.737c-2.95-1.382-6.713-3.171-10.027-2.051a8.121,8.121,0,0,0-5.091,8.37,3.826,3.826,0,0,0,2.574,3.187Z" transform="translate(-1101.168 -748.348)" fill="#fff"/>
      <g id="Group_9428" data-name="Group 9428" transform="translate(0 0)">
        <path id="Path_11498" data-name="Path 11498" d="M1100.719,758.135a.98.98,0,0,1-.351-.065,4.8,4.8,0,0,1-3.193-3.959,9.073,9.073,0,0,1,5.747-9.445c3.655-1.236,7.546.587,10.672,2.052l.085.04a.982.982,0,0,1-.833,1.778l-.085-.04c-2.808-1.316-6.3-2.953-9.211-1.97a7.1,7.1,0,0,0-4.435,7.3,2.832,2.832,0,0,0,1.954,2.415.982.982,0,0,1-.352,1.9Z" transform="translate(-1097.095 -744.257)" fill="#090928"/>
      </g>
    </g>
    <path id="Path_11499" data-name="Path 11499" d="M1218,967.873h0a5.135,5.135,0,0,0,4.675,3.01h2.562s-.645,44.134,26.586,48.36l-1-8.2,9.678-3.953s-23.553-10.413-30.219-33.746l-2.726-9.1a5.1,5.1,0,0,0-4.884-3.635h0A5.135,5.135,0,0,0,1218,967.873Z" transform="translate(-685.386 -533.484)" fill="#090928"/>
    <path id="Path_11500" data-name="Path 11500" d="M1682.5,834.991h46.516l-11.629,62.9h-46.2Z" transform="translate(-1050.892 -432.27)" fill="#00b106" opacity="0.5"/>
    <g id="Group_9430" data-name="Group 9430" transform="translate(605.258 441.215)">
      <path id="Path_11501" data-name="Path 11501" d="M1603.786,1064.424a.982.982,0,0,1-.208-1.941c4.443-.969,16.247-3.542,18.542-7.7a2.7,2.7,0,0,0,.177-2.339,3.238,3.238,0,0,0-4.142-1.941l-7,2.533a.981.981,0,0,1-1.315-.944c0-.158.006-.317,0-.475a.981.981,0,0,1,.648-.941l10.364-3.748a3.234,3.234,0,1,0-2.2-6.083l-10.425,3.77a.982.982,0,0,1-1.09-.3l-.053-.065c-.044-.054-.089-.108-.135-.161a.981.981,0,0,1,.406-1.568l3.8-1.376a3.234,3.234,0,0,0,1.775-1.728,3.329,3.329,0,0,0,.151-2.545c-.682-1.795-2.393-2.217-5.721-1.411-1.254.3-2.768.63-4.37.976-2.4.518-5.125,1.105-7.952,1.82a.982.982,0,0,1-.481-1.9c2.861-.723,5.6-1.314,8.019-1.836,1.659-.358,3.092-.667,4.322-.965,1.59-.385,6.429-1.558,8.018,2.62a5.29,5.29,0,0,1-.169,3.99l3.233-1.169a5.2,5.2,0,1,1,3.535,9.775l-.114.041a5.183,5.183,0,0,1,2.739,2.962,4.617,4.617,0,0,1-.305,3.955c-2.4,4.35-11.379,6.823-19.843,8.668A.973.973,0,0,1,1603.786,1064.424Z" transform="translate(-1593.82 -1033.11)" fill="#090928"/>
    </g>
    <g id="Group_9431" data-name="Group 9431" transform="translate(498.007 445.484)">
      <path id="Path_11502" data-name="Path 11502" d="M1099.107,1096.457q-2.561,0-5.106-.166c-16.182-1.054-31.973-7.139-46.933-18.086a12.8,12.8,0,0,1,15.115-20.655c21.933,16.05,44.539,17.495,69.109,4.418a12.8,12.8,0,0,1,12.025,22.594C1128.466,1092.466,1113.618,1096.457,1099.107,1096.457Z" transform="translate(-1041.827 -1055.08)" fill="#f55d2c"/>
    </g>
    <g id="Group_9434" data-name="Group 9434" transform="translate(502.266 446.973)">
      <g id="Group_9432" data-name="Group 9432" transform="translate(0 20.655)">
        <path id="Path_11503" data-name="Path 11503" d="M1119.955,1188.949a95.344,95.344,0,0,1-23.346-2.9,93.308,93.308,0,0,1-32.458-15.224.982.982,0,0,1,1.159-1.584,92.518,92.518,0,0,0,66.856,16.955,55.18,55.18,0,0,0,14.963-3.972.982.982,0,0,1,.785,1.8,57.138,57.138,0,0,1-15.5,4.119A96.944,96.944,0,0,1,1119.955,1188.949Z" transform="translate(-1063.749 -1169.049)" fill="#090928"/>
      </g>
      <g id="Group_9433" data-name="Group 9433" transform="translate(15.114)">
        <path id="Path_11504" data-name="Path 11504" d="M1180.233,1077.5q-2.32,0-4.634-.146c-11.538-.727-23.176-5.165-33.657-12.832a.982.982,0,1,1,1.159-1.584c10.178,7.446,21.459,11.754,32.622,12.458a74.866,74.866,0,0,0,35.893-6.8.982.982,0,0,1,.821,1.783A77.206,77.206,0,0,1,1180.233,1077.5Z" transform="translate(-1141.54 -1062.744)" fill="#090928"/>
      </g>
    </g>
    <g id="Group_9435" data-name="Group 9435" transform="translate(565.766 421.701)">
      <path id="Path_11505" data-name="Path 11505" d="M1408.913,953.7c-4.894,0-11.811-5.361-18.008-10.694a.982.982,0,0,1,1.281-1.488c3.447,2.967,12.6,10.845,17.305,10.18a2.7,2.7,0,0,0,1.975-1.265,3.238,3.238,0,0,0-.941-4.476l-6.237-4.071a.981.981,0,0,1-.037-1.618c.128-.092.256-.185.38-.283a.981.981,0,0,1,1.142-.05l9.229,6.024a3.234,3.234,0,0,0,3.536-5.417l-9.283-6.059a.981.981,0,1,1,1.073-1.644l9.283,6.059a5.2,5.2,0,1,1-5.681,8.7l-.1-.064.013.058a5.162,5.162,0,0,1-.734,3.91,4.617,4.617,0,0,1-3.343,2.136A6.088,6.088,0,0,1,1408.913,953.7Z" transform="translate(-1390.565 -932.678)" fill="#090928"/>
    </g>
    <g id="Group_9436" data-name="Group 9436" transform="translate(576.807 410.654)">
      <path id="Path_11506" data-name="Path 11506" d="M1457.271,888.735q-.526,0-1.043,0l-.773,0a.982.982,0,0,1,0-1.963h0l.786,0c3.353.024,13.557.095,16.171-2.808a1.963,1.963,0,0,0,.533-1.629c-.214-1.909-1.766-2.744-5.189-2.792-1.417-.02-4.286-.346-7.608-.722-4.238-.48-9.04-1.025-11.78-1.037a.982.982,0,0,1,0-1.963h0c2.846.012,7.705.563,11.993,1.049,3.134.355,6.094.691,7.414.71,1.636.023,6.615.094,7.112,4.537a3.9,3.9,0,0,1-1.025,3.162C1471.177,888.266,1463.764,888.735,1457.271,888.735Z" transform="translate(-1447.392 -875.817)" fill="#090928"/>
    </g>
    <g id="Group_9437" data-name="Group 9437" transform="translate(610.445 391.167)">
      <path id="Path_11507" data-name="Path 11507" d="M1665.994,840.391h-21.652a.982.982,0,1,1,0-1.963h20.835l11.266-60.94h-44.52l-9.457,51.153a.982.982,0,1,1-1.931-.357l9.605-51.956a.982.982,0,0,1,.965-.8h46.516a.982.982,0,0,1,.965,1.16l-11.629,62.9A.982.982,0,0,1,1665.994,840.391Z" transform="translate(-1620.52 -775.525)" fill="#090928"/>
    </g>
    <path id="Path_11508" data-name="Path 11508" d="M1616.015,458.219l-5.323,2.256-2.246-5.3a14.593,14.593,0,0,0-26.873,11.39l2.375,5.6,11.141,26.286.119.281.248-.1c.068,0,26.635-11.261,26.635-11.261-.01-.024,5.313-2.28,5.313-2.28a14.593,14.593,0,0,0-11.389-26.873Z" transform="translate(-977.768 -119.087)" fill="#f55d2c"/>
    <circle id="Ellipse_259" data-name="Ellipse 259" cx="8.987" cy="8.987" r="8.987" transform="translate(390.307 336.662) rotate(-76.98)" fill="#00b106" opacity="0.5"/>
    <g id="Group_9438" data-name="Group 9438" transform="translate(402.016 328.697)">
      <path id="Path_11509" data-name="Path 11509" d="M616.153,456.475H549.021a1.233,1.233,0,1,1,0-2.467h67.131a1.233,1.233,0,0,1,0,2.467Z" transform="translate(-547.788 -454.008)" fill="#00b106"/>
    </g>
    <circle id="Ellipse_260" data-name="Ellipse 260" cx="8.987" cy="8.987" r="8.987" transform="translate(388.378 355.833) rotate(-45)" fill="#00b106" opacity="0.5"/>
    <g id="Group_9439" data-name="Group 9439" transform="translate(402.016 354.6)">
      <path id="Path_11510" data-name="Path 11510" d="M616.153,589.788H549.021a1.234,1.234,0,0,1,0-2.467h67.131a1.234,1.234,0,0,1,0,2.467Z" transform="translate(-547.788 -587.321)" fill="#00b106"/>
    </g>
    <circle id="Ellipse_261" data-name="Ellipse 261" cx="8.987" cy="8.987" r="8.987" transform="translate(392.1 372.749)" fill="#00b106" opacity="0.5"/>
    <g id="Group_9440" data-name="Group 9440" transform="translate(402.016 380.502)">
      <path id="Path_11511" data-name="Path 11511" d="M616.153,723.1H549.021a1.233,1.233,0,1,1,0-2.467h67.131a1.233,1.233,0,0,1,0,2.467Z" transform="translate(-547.788 -720.635)" fill="#00b106"/>
    </g>
    <g id="Group_9441" data-name="Group 9441" transform="translate(642.742 337.739)">
      <path id="Path_11512" data-name="Path 11512" d="M1802.88,532.815a16.135,16.135,0,1,1,16.135-16.135A16.154,16.154,0,0,1,1802.88,532.815Zm0-30.307a14.172,14.172,0,1,0,14.172,14.172A14.188,14.188,0,0,0,1802.88,502.507Z" transform="translate(-1786.745 -500.544)" fill="#090928"/>
    </g>
    <g id="Group_9444" data-name="Group 9444" transform="translate(650.407 345.404)">
      <g id="Group_9442" data-name="Group 9442" transform="translate(7.489 0)">
        <path id="Path_11513" data-name="Path 11513" d="M1865.719,556.935a.982.982,0,0,1-.981-.982V540.976a.982.982,0,1,1,1.963,0v14.978A.982.982,0,0,1,1865.719,556.935Z" transform="translate(-1864.738 -539.994)" fill="#090928"/>
      </g>
      <g id="Group_9443" data-name="Group 9443" transform="translate(0 7.489)">
        <path id="Path_11514" data-name="Path 11514" d="M1842.154,580.5h-14.978a.982.982,0,0,1,0-1.963h14.978a.982.982,0,0,1,0,1.963Z" transform="translate(-1826.195 -578.537)" fill="#090928"/>
      </g>
    </g>
    <g id="Group_9452" data-name="Group 9452" transform="translate(593.155 497.148)">
      <g id="Group_9445" data-name="Group 9445" transform="translate(69.51 60.436)">
        <path id="Path_11516" data-name="Path 11516" d="M1929.614,1676.088a41.212,41.212,0,0,1-18.365-4.146,1.682,1.682,0,0,0-.549-.344c-5.324-3.563-13.268-5.093-20.3-6.248a1.3,1.3,0,0,1-1.023-.794c-.376-.922.319-1.94,1.484-3.526.232-.316.472-.643.571-.81,5.087-8.643,9.318-14.2,14.6-19.176a33.35,33.35,0,0,1,20.812-8.977,34.159,34.159,0,0,1,18.052,4.27c4.35,2.456,9.808,6.964,11.1,14.5,1.829,10.657-2.938,16.667-7.26,19.832-4.6,3.367-11.127,5.29-18.387,5.416Q1929.986,1676.089,1929.614,1676.088ZM1912.058,1670a1.079,1.079,0,0,1,.158.066c9.529,4.918,25.727,5.894,35.281-1.1,5.508-4.034,7.73-10.18,6.427-17.773-1.933-11.264-15.5-17.6-26.965-17.016a31.209,31.209,0,0,0-19.473,8.406c-5.13,4.83-9.253,10.251-14.231,18.71-.153.259-.4.6-.689.989-.21.285-.552.751-.816,1.156,6.991,1.174,14.709,2.787,20.124,6.41A1.054,1.054,0,0,1,1912.058,1670Z" transform="translate(-1889.279 -1632.028)" fill="#090928"/>
      </g>
      <g id="Group_9446" data-name="Group 9446" transform="translate(0)">
        <path id="Path_11517" data-name="Path 11517" d="M1592.151,1404.047a1.056,1.056,0,0,1-1.027-.815,14.593,14.593,0,0,0-1.967-3.954c-.15-.24-.3-.475-.437-.7-6.989-11.435-18.793-17.592-30.209-23.547-3.116-1.626-6.339-3.307-9.417-5.07-6.674-3.823-12.175-9.5-15.093-15.575a22.273,22.273,0,0,1,.526-21.361c3.818-6.784,9.609-10.871,16.746-11.82,12.107-1.609,25.56,5.847,33.524,13.949a49.043,49.043,0,0,1,10.47,16.236,64.6,64.6,0,0,1,1.944,41.966c-.1.324-.2.658-.3,1-.891,3.008-2,6.751-3.921,9.279A1.055,1.055,0,0,1,1592.151,1404.047Zm-37.447-80.96a23.943,23.943,0,0,0-3.155.2c-6.546.87-11.655,4.491-15.185,10.763-7.314,13,1.395,26.977,13.777,34.071,3.043,1.743,6.246,3.414,9.345,5.03,11.671,6.088,23.74,12.383,31.034,24.317.137.223.28.452.426.686.484.774,1,1.606,1.436,2.474a40.1,40.1,0,0,0,2.507-6.881c.1-.345.2-.682.3-1.009a62.447,62.447,0,0,0-1.881-40.571,46.942,46.942,0,0,0-10.016-15.543C1576.39,1329.608,1565.225,1323.087,1554.7,1323.087Z" transform="translate(-1531.529 -1320.98)" fill="#090928"/>
      </g>
      <g id="Group_9447" data-name="Group 9447" transform="translate(8.195 79.777)">
        <path id="Path_11518" data-name="Path 11518" d="M1587.587,1779.342a10.038,10.038,0,0,1-3.8-.756c-4.621-1.879-7.721-6.724-9.081-10.631-3.145-9.034,1.707-19.738,6.819-26.159a27.478,27.478,0,0,1,12.225-9.153,18.86,18.86,0,0,1,7.5-1.024c3.529.247,7.749,1.116,7.817,3.855a3.485,3.485,0,0,1-1.79,2.739c-3.06,2.2-5.7,4.271-7.022,7.431-1.248,2.984-1.345,6.4-1.265,9.639a1.055,1.055,0,0,1-2.109.052c-.086-3.477.027-7.156,1.428-10.505,1.532-3.665,4.535-6.033,7.739-8.332.609-.437.915-.765.91-.973-.014-.562-1.884-1.525-5.855-1.8a16.749,16.749,0,0,0-6.665.914,25.391,25.391,0,0,0-11.263,8.472c-4.777,6-9.34,15.928-6.477,24.151,1.209,3.472,3.914,7.757,7.883,9.371a8.09,8.09,0,0,0,6.916-.373,1.055,1.055,0,1,1,.943,1.887A10.811,10.811,0,0,1,1587.587,1779.342Z" transform="translate(-1573.707 -1731.575)" fill="#090928"/>
      </g>
      <g id="Group_9448" data-name="Group 9448" transform="translate(40.358 81.168)">
        <path id="Path_11519" data-name="Path 11519" d="M1756.561,1769.291a1.055,1.055,0,0,1-1.048-.948c-1.451-14.283-4.559-23.875-15.549-27.558a1.055,1.055,0,1,1,.67-2,20.963,20.963,0,0,1,12.807,11.356c2.618,5.458,3.578,12.156,4.17,17.989a1.055,1.055,0,0,1-.943,1.156A1.076,1.076,0,0,1,1756.561,1769.291Z" transform="translate(-1739.244 -1738.729)" fill="#090928"/>
      </g>
      <g id="Group_9449" data-name="Group 9449" transform="translate(61.255 90.908)">
        <path id="Path_11520" data-name="Path 11520" d="M1847.848,1810.243a1.055,1.055,0,0,1-1.009-1.366,78.786,78.786,0,0,1,3.964-10.352c.273-.579.57-1.231.884-1.921a71.218,71.218,0,0,1,3.636-7.237,1.055,1.055,0,0,1,1.8,1.1,69.713,69.713,0,0,0-3.517,7.012c-.317.7-.617,1.355-.9,1.947a76.692,76.692,0,0,0-3.855,10.073A1.056,1.056,0,0,1,1847.848,1810.243Z" transform="translate(-1846.793 -1788.861)" fill="#090928"/>
      </g>
      <g id="Group_9450" data-name="Group 9450" transform="translate(59.061 81.1)">
        <path id="Path_11521" data-name="Path 11521" d="M1836.56,1768.9a1.03,1.03,0,0,1-.116-.006,1.055,1.055,0,0,1-.934-1.163,196.061,196.061,0,0,0,.681-28.256,1.055,1.055,0,1,1,2.108-.074,197.983,197.983,0,0,1-.692,28.559A1.055,1.055,0,0,1,1836.56,1768.9Z" transform="translate(-1835.503 -1738.38)" fill="#090928"/>
      </g>
      <g id="Group_9451" data-name="Group 9451" transform="translate(30.264 110.134)">
        <path id="Path_11522" data-name="Path 11522" d="M1730.579,1933.791H1702.4a1.055,1.055,0,0,1-1.026-.81l-7.558-31.71a6.91,6.91,0,0,1-4.5-1.953,6.617,6.617,0,0,1-2.028-4.773,6.818,6.818,0,0,1,6.887-6.73h44.629a6.941,6.941,0,0,1,4.858,1.96,6.614,6.614,0,0,1,2.029,4.771,6.811,6.811,0,0,1-6.532,6.726l-7.558,31.709A1.054,1.054,0,0,1,1730.579,1933.791Zm-27.342-2.109h26.509l7.556-31.7a1.054,1.054,0,0,1,1.026-.81h.48a4.709,4.709,0,0,0,4.778-4.625,4.518,4.518,0,0,0-1.39-3.257,4.839,4.839,0,0,0-3.388-1.364h-44.629a4.707,4.707,0,0,0-4.778,4.621,4.525,4.525,0,0,0,1.39,3.262,4.824,4.824,0,0,0,3.388,1.363h.476a1.055,1.055,0,0,1,1.026.81Z" transform="translate(-1687.292 -1887.815)" fill="#090928"/>
      </g>
    </g>
  </g>
</svg>
