<svg xmlns="http://www.w3.org/2000/svg" xmlns:xlink="http://www.w3.org/1999/xlink" width="58" height="58" viewBox="0 0 58 58">
  <defs>
    <filter id="Ellipse_268" x="0" y="0" width="58" height="58" filterUnits="userSpaceOnUse">
      <feOffset dy="3" input="SourceAlpha"/>
      <feGaussianBlur stdDeviation="3" result="blur"/>
      <feFlood flood-opacity="0.161"/>
      <feComposite operator="in" in2="blur"/>
      <feComposite in="SourceGraphic"/>
    </filter>
  </defs>
  <g id="Group_9538" data-name="Group 9538" transform="translate(-950.003 -910.201)">
    <g transform="matrix(1, 0, 0, 1, 950, 910.2)" filter="url(#Ellipse_268)">
      <circle id="Ellipse_268-2" data-name="Ellipse 268" cx="20" cy="20" r="20" transform="translate(9 6)" fill="#2196f3"/>
    </g>
    <path id="_003-facebook-1" data-name="003-facebook-1" d="M128.355,4.641h3.481a.58.58,0,0,0,.58-.58V.58a.58.58,0,0,0-.58-.58h-3.481a6.388,6.388,0,0,0-6.381,6.381v4.061h-4.061a.58.58,0,0,0-.58.58V14.5a.58.58,0,0,0,.58.58h4.061V27.266a.58.58,0,0,0,.58.58h3.481a.58.58,0,0,0,.58-.58V15.083h4.061a.58.58,0,0,0,.55-.4l1.16-3.481a.58.58,0,0,0-.55-.763h-5.221V6.381A1.74,1.74,0,0,1,128.355,4.641Z" transform="translate(852.853 922.465)" fill="#fff"/>
  </g>
</svg>
